<?xml version="1.0" standalone="no"?>
<!DOCTYPE svg PUBLIC "-//W3C//DTD SVG 20010904//EN"
 "http://www.w3.org/TR/2001/REC-SVG-20010904/DTD/svg10.dtd">
<svg version="1.0" xmlns="http://www.w3.org/2000/svg"
 width="734.000000pt" height="734.000000pt" viewBox="0 0 734.000000 734.000000"
 preserveAspectRatio="xMidYMid meet">
<metadata>
Created by Zayn Ejaz 1.14, written by Zayn Ejaz 2023
</metadata>
<g transform="translate(0.000000,734.000000) scale(0.100000,-0.100000)"
fill="#000000" stroke="none">
<path d="M3465 7200 c-703 -48 -1356 -289 -1910 -705 -762 -573 -1265 -1431
-1390 -2369 -52 -387 -37 -806 41 -1156 316 -1416 1414 -2501 2810 -2779 237
-47 335 -55 664 -56 321 0 380 4 620 46 893 156 1717 678 2257 1430 131 184
208 311 313 524 185 375 290 718 347 1130 24 178 24 604 0 790 -44 330 -121
640 -228 907 -50 126 -195 415 -272 543 -260 432 -638 823 -1077 1114 -156
103 -501 283 -665 346 -469 181 -1026 267 -1510 235z m352 -817 c424 -484 724
-886 1030 -1383 710 -1154 1044 -2349 929 -3325 -15 -128 -36 -258 -41 -253
-2 2 -20 76 -40 166 -240 1076 -811 2149 -1714 3222 -120 142 -287 331 -295
333 -16 5 -473 -540 -652 -778 -658 -874 -1108 -1767 -1319 -2619 -30 -120
-58 -241 -61 -267 -4 -27 -10 -49 -15 -49 -5 0 -9 3 -9 8 0 4 -9 63 -20 132
-88 558 -12 1255 213 1941 245 746 671 1527 1236 2269 157 205 611 750 626
750 1 0 61 -66 132 -147z m159 -3837 c151 -478 273 -870 271 -872 -2 -2 -129
125 -282 282 l-279 286 -284 -288 c-156 -159 -281 -282 -279 -274 2 8 130 410
283 894 197 621 281 873 286 860 5 -11 132 -410 284 -888z"/>
</g>
</svg>
