
<svg version="1.0" xmlns="http://www.w3.org/2000/svg"
 width="734.000000pt" height="732.000000pt" viewBox="0 0 734.000000 732.000000"
 preserveAspectRatio="xMidYMid meet">
<g transform="translate(0.000000,732.000000) scale(0.100000,-0.100000)"
fill="#e82b23" stroke="none">
<path d="M3430 7184 c-19 -2 -80 -9 -135 -15 -772 -81 -1507 -427 -2078 -978
-510 -493 -869 -1151 -1012 -1856 -57 -281 -81 -696 -56 -987 32 -387 155
-810 351 -1213 275 -564 702 -1058 1211 -1402 497 -335 997 -520 1609 -595
162 -20 603 -17 775 5 769 100 1426 408 2001 939 308 284 572 641 770 1043
183 370 294 732 348 1135 16 117 24 392 15 552 -39 757 -305 1461 -775 2053
-119 150 -402 431 -554 551 -450 356 -967 597 -1520 708 -224 45 -363 58 -640
61 -151 2 -291 1 -310 -1z m356 -769 c1132 -1275 1802 -2573 1981 -3836 25
-177 27 -220 28 -504 0 -195 -5 -345 -13 -405 -15 -113 -44 -281 -48 -277 -1
1 -19 77 -38 167 -182 844 -601 1738 -1219 2600 -198 275 -539 697 -747 923
l-46 50 -105 -119 c-837 -945 -1430 -1927 -1750 -2896 -67 -203 -146 -502
-171 -645 -6 -40 -15 -73 -19 -73 -7 0 -8 7 -41 210 -19 117 -22 175 -22 440
0 327 13 472 69 771 179 966 690 2023 1455 3009 218 281 580 705 591 692 4 -4
46 -52 95 -107z m193 -3879 c155 -488 281 -890 279 -891 -2 -2 -131 128 -287
289 l-283 292 -192 -195 c-105 -108 -234 -240 -285 -293 -52 -54 -96 -97 -97
-95 -2 2 114 372 257 822 143 451 271 858 286 904 16 51 29 78 33 70 4 -8 134
-414 289 -903z"/>
</g>
</svg>
